<?xml version="1.0" encoding="UTF-8"?>
<!-- Generator: Adobe Illustrator 25.2.3, SVG Export Plug-In . SVG Version: 6.00 Build 0)  -->
<svg version="1.1" id="Layer_1" xmlns="http://www.w3.org/2000/svg" xmlns:xlink="http://www.w3.org/1999/xlink" x="0px" y="0px" viewBox="0 0 1099.8 676.3" style="enable-background:new 0 0 1099.8 676.3;" xml:space="preserve">
<style type="text/css">
	.st0{fill:#E0F5FF;}
	.st1{fill:#BFE5FF;}
	.st2{fill:#FFFFFF;}
	.st3{fill:#ABDAF4;}
	.st4{fill:#80D3F9;}
	.st5{fill:#4BB8DF;}
	.st6{fill:#339CC5;}
	.st7{fill:#E4EDEF;}
	.st8{fill:#1B1E3F;}
	.st9{fill:#401737;}
	.st10{fill-rule:evenodd;clip-rule:evenodd;fill:#BFE5FF;}
	.st11{fill:#FF8001;}
	.st12{fill:#80C41C;}
</style>
<g>
	<g>
		<path class="st0" d="M993.6,443.7c0,14.9-0.7,29.6-2.2,44.1c-6.4,65.6-27.5,128.9-61.6,185.3c-0.3,0.5-0.6,1-0.9,1.6h-758    c-2.6-4.3-5.2-8.6-7.6-13c-37.6-66.5-57.2-141.5-57.1-217.9C106.2,198.7,304.8,0,549.9,0C795,0,993.6,198.7,993.6,443.7z"/>
		<polygon class="st1" points="258.9,538.6 258.9,602.6 280.5,602.6 280.5,540.4 377.4,572.9 323.1,458 348.2,466.4 306.6,378.4     330.2,386.3 267.1,252.7 204,386.3 227.6,378.4 186,466.4 211.1,458 156.8,572.9   "/>
		<path class="st1" d="M317,674.8h-21.4l-0.5-0.2l-71.1-25v25.2h-21.5v-27l-39.3,13.8c-10.4-18.4-19.5-37.5-27.1-57.2l18.5-41.2    l-25.1,8.8l41.6-92.3l-23.5,8.3L210.7,348l63.1,140.1l-23.5-8.3l41.6,92.3l-25.1-8.8l50.2,111.4L317,674.8z"/>
		<path class="st2" d="M856.2,282.3c-12.8,0-23.1,10.4-23.1,23.1h46.3C879.3,292.7,869,282.3,856.2,282.3z"/>
		<path class="st1" d="M702.7,200.9c10.4-7.9,23.9-10.5,36.5-7c2.3-22.4-14-42.4-36.4-44.7c-16.3-1.7-32.1,6.6-39.9,21.1    C680.4,173.2,695.4,184.6,702.7,200.9z"/>
		<path class="st2" d="M623.8,252.9c-0.5-0.5-0.9-0.9-1.4-1.4c-0.3,0.5-0.5,1-0.8,1.4h-44.8c-7.6-12.4-3.8-28.6,8.6-36.2    c8.2-5,18.4-5.2,26.8-0.5c3.8-23,25.6-38.6,48.6-34.7c16.9,2.8,30.4,15.5,34.2,32.2c2.8,0.7,5.4,1.9,7.8,3.4    c9.7-14,28.9-17.5,42.9-7.8c8.3,5.8,13.3,15.2,13.3,25.4c0,0.1,0,0.2,0,0.4c7.8-4.6,17.8-2,22.4,5.7c2.2,3.7,2.8,8.1,1.8,12.2    L623.8,252.9z"/>
		<path class="st1" d="M969.3,463.8h-25.8v-14.4h3.4V445h-41.5v4.3h4.4v14.4h-76.5l-71.8,87.4h10.3v5l0,109.7h0.8l-7.9,0.2h-1.1v7.4    h166c34.1-56.4,55.2-119.7,61.6-185.3L969.3,463.8z"/>
		<polygon class="st3" points="205.9,666.8 205.9,674.7 207.3,674.7 235.4,646.6 235.4,637.3   "/>
		<polygon class="st3" points="205.9,559 235.2,529.7 226,529.7 205.9,549.7   "/>
		<polygon class="st3" points="205.9,647.1 205.9,656.3 235.4,626.9 235.4,617.6   "/>
		<polygon class="st3" points="205.9,569.5 205.9,578.8 235.4,549.3 235.4,540   "/>
		<polygon class="st3" points="205.9,628.8 205.9,638.1 235.4,608.6 235.4,599.3   "/>
		<polygon class="st3" points="205.9,589.3 205.9,598.6 235.4,569.1 235.4,559.8   "/>
		<polygon class="st3" points="205.9,609.1 205.9,618.3 235.4,588.8 235.4,579.6   "/>
		<polygon class="st3" points="205.9,538.9 215.5,529.7 206.2,529.7 205.9,529.9   "/>
		<polygon class="st3" points="235.4,657.1 217.8,674.7 227.1,674.7 235.4,666.4   "/>
		<path class="st2" d="M532.2,70.2c-5.1,0-10,1.9-13.7,5.3c-8.3-13.6-26.1-17.8-39.7-9.5c-8.5,5.3-13.7,14.6-13.7,24.6h87.6    C552.7,79.4,543.5,70.2,532.2,70.2L532.2,70.2z"/>
		<path class="st2" d="M406.1,222.3c-2.5-15.1-16.7-25.3-31.8-22.9c-0.8,0.1-1.5,0.3-2.2,0.5c-8-19-29.9-27.9-48.8-19.9    c-16.6,7-25.8,24.8-22,42.3H406.1z"/>
		<path class="st2" d="M487.3,175.9l-1.5-2.9c-0.1-0.1-0.1-0.2-0.2-0.4c-1.6-3.5-4.7-6.1-8.3-7.1l1.1-3.3c3.6,1.1,6.8,3.4,9,6.4    c2.2-3.1,5.4-5.3,9-6.4l1.1,3.3c-3,0.9-5.7,2.8-7.4,5.4L487.3,175.9z"/>
		<path class="st2" d="M444.4,161.3l-1.5-2.3c-0.1-0.1-0.2-0.3-0.3-0.4c-1.2-2.2-3.3-3.8-5.8-4.3l0.9-3.4c2.6,0.6,4.9,2,6.6,4    c1.7-2,4-3.4,6.6-4l0.9,3.4c-2.5,0.5-4.6,2.1-5.8,4.3L444.4,161.3z"/>
	</g>
	<g>
		<path class="st2" d="M996.4,672.1l16.2-8.6c-0.7-2.2-2.3-4-4.4-5c-5.8-9-11-28.9-19.7-34.8c1.8-7.2,1.4-22.2,1.4-22.2l0,0    c0.9-3.2,0.9-6.6,0.2-9.8l-1-4.3l1.2,0l-5.6-33.6l3.1,2.9l2,3.7l1.1-0.7l3.6,5.2c-1.3,7-0.8,15.9,0,22.4h0    c-0.2,0.4-0.2,0.8-0.2,1.2l0.5,5.5c0.1,1.9,1.8,3.3,3.7,3.2c0.1,0,0.2,0,0.3,0c1.9-0.4,3.1-2.3,2.7-4.2c-0.1-0.3-0.2-0.6-0.3-0.9    l-2.5-4.8c0-10.4,4.7-15.2,3.2-24.5l-3.9-7.5c0,0-8.4-22.5-20.9-24.6l-2-6.7c1.1-0.9,2.1-1.8,3-2.9c1.5-1.7,2.6-3.8,3.3-5.9    c0.8-2.5,0.8-5.2,0.1-7.7l0.7-0.7c0.3-0.3,0.5-0.6,0.7-0.9l0.1,0.5l5.6,25.2l4.2-7.5l-0.1-9l2.9,4.7l3-4.9c0,0-1.5-8.1-6.9-12.5    c-5.6-4.5-9.9-2.1-9.9-2.1l0,0.1c0.4,0.2,0.7,0.6,0.9,0.9c-1.3-1.9-3.9-2.4-5.8-1.1c-0.2,0.2-0.5,0.3-0.6,0.5l0,0    c-0.3-0.2-0.7-0.3-1-0.4c-4.9-1.5-11.3,2.3-13.3,8.7c0,0,0,0.1,0,0.1c-2,6.5,0.5,15.6,5.5,17.1c0.1,0,0.3,0.1,0.4,0.1    c-0.5,3.3-1.6,6.5-3.1,9.5l-7,13.2l3.2,8.8l-3.2,6.5l-16.1,13l0,0c-0.3,0-0.6,0.1-0.8,0.3l-4.8,2.7c-1.7,0.9-2.3,3-1.4,4.7    c0.1,0.1,0.1,0.2,0.2,0.3c1.1,1.6,3.4,1.9,5,0.8c0.3-0.2,0.5-0.4,0.7-0.7l3.4-4.3c0.1-0.1,0.1-0.2,0.2-0.3l16.2-9.2l-1.3,16.1    l2.3,0c0.3,4.4,1,8.8,2.2,13.1l-6.9,24.5l-5.3,42.4c0,0-9.3,2.1-12,6.8l19.6-0.1c0.8-3.4-1.7-6.5-1.7-6.5    c4.3-14.4,11.8-28.5,11.4-40.5l4.2-4.5c2.3,4.1,4.1,6.8,4.1,6.8l25.8,31.5C1002.7,661.5,996.8,666.4,996.4,672.1z M983.2,502    c-0.1-0.1-0.1-0.3-0.2-0.4C983,501.7,983.1,501.9,983.2,502z M983.5,503.4c0-0.1,0-0.2,0-0.2C983.5,503.2,983.5,503.3,983.5,503.4    L983.5,503.4z M983.4,502.7c0-0.1-0.1-0.2-0.1-0.4C983.3,502.5,983.4,502.6,983.4,502.7L983.4,502.7z"/>
		<path class="st4" d="M807.5,525c0,34.3,27.8,62.1,62.1,62.1c34.3,0,62.1-27.8,62.1-62.1S887.1,353,869.6,353    C852,353,807.5,490.7,807.5,525z"/>
		<path class="st5" d="M154.9,581.4c-6.9,4-9.5,13.3-5.7,20.8l25-14.3C170.4,580.4,161.8,577.5,154.9,581.4z"/>
		<path class="st5" d="M916.6,620.2c2.9-5,1.1-11.9-4-15.3L902,623.2C907.2,626.6,913.7,625.2,916.6,620.2z"/>
		<path class="st4" d="M130,626.2c-4.7-1.9-10.4,0.5-12.8,5.3l17.1,7C136.6,633.6,134.7,628.1,130,626.2z"/>
		<polygon class="st2" points="731,455 731,485.6 653.9,485.6 653.9,638.2 237,638.2 237,455   "/>
		<polygon class="st2" points="723.6,346 626.5,462.6 609.1,462.6 609.1,638.2 826.3,638.2 826.4,462.5   "/>
		<polygon class="st2" points="724.5,324.4 328.3,324.4 210.9,450.1 210.7,450.2 224.3,462.6 626.5,462.6 723.6,346 826.4,461.4     847.9,461.4   "/>
		<polygon class="st6" points="600.6,471.2 634.4,471.2 724.7,362 815.3,466.9 827.3,466.9 724.3,347.1 627.3,463.7 600.6,463.7       "/>
		<rect x="546.1" y="662.3" class="st2" width="302.5" height="12.2"/>
		<rect x="214.8" y="662.3" class="st2" width="439.4" height="12.2"/>
		<rect x="393.4" y="302.1" class="st2" width="28.6" height="112.9"/>
		<polygon class="st2" points="446.9,381.7 446.9,302.1 420.4,301.8 420.4,415 421.1,415   "/>
		<rect x="237" y="638.2" class="st2" width="383.4" height="25"/>
		<rect x="620.3" y="638.2" class="st2" width="212.3" height="25"/>
		<ellipse class="st4" cx="726.5" cy="448.4" rx="21.3" ry="24.7"/>
		<rect x="423.3" y="291.8" class="st2" width="26.2" height="10"/>
		<rect x="390.2" y="291.8" class="st2" width="32.1" height="10"/>
		<rect x="290.8" y="515.7" class="st4" width="72.4" height="75.2"/>
		<rect x="394.6" y="515.7" class="st4" width="72.4" height="75.2"/>
		<rect x="501.9" y="515.7" class="st4" width="72.4" height="75.2"/>
		<polygon class="st4" points="620.5,448.4 210.7,448.4 328.9,324.4 723.5,324.4   "/>
		<rect x="394.6" y="302.1" class="st6" width="25.6" height="112.2"/>
		<polygon class="st2" points="420.2,414.2 446.9,381.7 446.5,302.3 420.4,302.3   "/>
		<rect x="394" y="302.3" class="st6" width="53" height="5.1"/>
		<path class="st2" d="M715.4,468.2l34.9-34.9c-0.4-0.6-0.8-1.1-1.3-1.6c-1.4-1.2-2.7-2.5-3.9-3.9l-35.9,35.9    C711.2,465.3,713,467.3,715.4,468.2z"/>
		<path class="st2" d="M753,450.2c-0.3-2.5-0.3-5.1,0-7.7l-29.6,29.6h10.7l18.8-18.8C752.9,452.3,752.9,451.3,753,450.2z"/>
		<path class="st6" d="M731.7,423.7c-0.9,0.1-1.9,0.4-2.8,0.6c13.3,3.6,21.2,17.3,17.6,30.6c-2.3,8.6-9,15.3-17.6,17.6    c0.9,0.3,1.9,0.5,2.8,0.6c13.6-2.1,23-14.8,21-28.4C751,433.9,742.5,425.4,731.7,423.7z"/>
		<rect x="680.1" y="514" class="st4" width="66.4" height="124.1"/>
		<rect x="680.5" y="530.4" class="st6" width="49.4" height="107.7"/>
		<rect x="680.5" y="530.4" class="st6" width="50.2" height="6.2"/>
		<rect x="722.8" y="530.4" class="st6" width="6.4" height="107.6"/>
		<rect x="680.9" y="514" class="st6" width="63.7" height="5.9"/>
		<rect x="740" y="514" class="st6" width="5.6" height="123.3"/>
		<polygon class="st5" points="326.8,518.3 296,550.3 296,560.8 337,518.3   "/>
		<polygon class="st5" points="305.2,518.3 296,527.9 296,538.4 315.4,518.3   "/>
		<polygon class="st5" points="348.4,518.3 296,572.7 296,583.3 358.5,518.3   "/>
		<polygon class="st5" points="363.1,525.5 300.1,590.9 310.3,590.9 363.1,536   "/>
		<polygon class="st5" points="363.1,570.4 343.3,590.9 353.5,590.9 363.1,580.9   "/>
		<polygon class="st5" points="363.1,547.9 321.7,590.9 331.9,590.9 363.1,558.4   "/>
		<polygon class="st5" points="430.9,519.9 400.3,550.9 400.3,561.1 441,519.9   "/>
		<polygon class="st5" points="409.4,519.9 400.3,529.2 400.3,539.4 419.5,519.9   "/>
		<polygon class="st5" points="452.4,519.9 400.3,572.6 400.3,582.8 462.5,519.9   "/>
		<polygon class="st5" points="467.1,526.9 404.3,590.2 414.4,590.2 467.1,537.1   "/>
		<polygon class="st5" points="467.1,570.3 447.4,590.2 457.5,590.2 467.1,580.5   "/>
		<polygon class="st5" points="467.1,548.6 425.9,590.2 436,590.2 467.1,558.8   "/>
		<polygon class="st5" points="537.6,519.9 506.9,550.9 506.9,561.1 547.7,519.9   "/>
		<polygon class="st5" points="516.1,519.9 506.9,529.2 506.9,539.4 526.2,519.9   "/>
		<polygon class="st5" points="559.1,519.9 506.9,572.6 506.9,582.8 569.2,519.9   "/>
		<polygon class="st5" points="573.8,526.9 511,590.2 521.1,590.2 573.8,537.1   "/>
		<polygon class="st5" points="573.8,570.3 554,590.2 564.1,590.2 573.8,580.5   "/>
		<polygon class="st5" points="573.8,548.6 532.5,590.2 542.6,590.2 573.8,558.8   "/>
		<polygon class="st6" points="651.7,674.5 404.9,674.5 416.6,662.3 651.7,662.3   "/>
		<polygon class="st5" points="619.1,638.6 474,638.6 446.9,666.7 619.1,663.7   "/>
		<rect x="680.1" y="638.6" class="st6" width="10.7" height="24.6"/>
		<rect x="688.5" y="651.9" class="st6" width="12.9" height="11.3"/>
		<rect x="595.1" y="462.6" class="st6" width="14" height="175.6"/>
		<rect x="690.8" y="638.6" class="st4" width="95.2" height="12.5"/>
		<rect x="702.3" y="650.2" class="st4" width="95.2" height="11.2"/>
		<rect x="645.9" y="552.9" class="st7" width="18.5" height="13.7"/>
		<rect x="433.7" y="327.1" class="st7" width="14.4" height="10.4"/>
		<rect x="421.1" y="365.2" class="st7" width="14.4" height="10.4"/>
		<rect x="384.1" y="592.9" class="st7" width="18.5" height="13.7"/>
		<rect x="807.9" y="489.3" class="st7" width="18.5" height="13.7"/>
		<rect x="414.2" y="466.6" class="st7" width="18.5" height="13.7"/>
		<rect x="652.7" y="534.8" class="st7" width="27.4" height="13.7"/>
		<rect x="360.2" y="608.6" class="st7" width="27.4" height="13.7"/>
		<rect x="237" y="462.6" class="st6" width="372.1" height="8.6"/>
		<rect x="290.8" y="515.7" class="st6" width="9.9" height="75.2"/>
		<rect x="290.8" y="515.7" class="st6" width="72.4" height="8.5"/>
		<rect x="395.8" y="515.7" class="st6" width="9.9" height="75.2"/>
		<rect x="395.8" y="515.7" class="st6" width="72.4" height="8.5"/>
		<rect x="500.8" y="515.7" class="st6" width="9.9" height="75.2"/>
		<rect x="500.8" y="515.7" class="st6" width="72.4" height="8.5"/>
		<path class="st4" d="M147.4,674.5c1.8-22.7,21.6-39.6,44.2-37.8c5.7,0.4,11.3,2.1,16.3,4.8c1.4-15.9,15.3-27.6,31.2-26.3    c13.9,1.2,24.9,12.1,26.3,25.9c11-7.5,25.9-4.6,33.4,6.4c1.8,2.6,3,5.5,3.6,8.5h8.1c6.1-8.1,17.5-9.7,25.6-3.6    c6.8,5.1,9.1,14.3,5.7,22L147.4,674.5z"/>
		<path class="st4" d="M127.2,473.5c0,37.5,30.5,68,68,68c37.5,0,67.9-30.4,68-68c0-37.5-48.8-188.3-68-188.3    C176,285.3,127.2,436,127.2,473.5z"/>
		<path class="st4" d="M1085,621.8c0.8-2.1-0.1-4.7-2.1-5.5c0.8-2.1,0-4.5-1.9-5.8l0.7-1.6c0.3-1-0.2-2-1.2-2.3    c-0.9-0.3-1.8,0.1-2.2,1l-3.1,7.5c-2,4.4-3.7,10.9-6.9,14.5c-1.6,1.8-3.9,1.3-6.1,2.5c-3.1,1.7-6.7,2-10.1,0.9    c-1-0.3-1.8-0.8-2.5-1.6c-1-1.4-0.6-3.4-0.4-5.1c0.5-2.9,0-5.8-1.2-8.4c-0.4-0.9-1-1.6-1.7-2.3c1.3-1.1,1.5-3.2,0.3-4.5    c-0.7-0.8-1.8-1.2-2.9-1.1c-2.5,0.9-5.2,1-7.7,0.1c-2.1-0.3-4,1.2-4.3,3.3c-0.2,1.5,0.5,3,1.8,3.8c-1.4,0.5-4.7,2-5.6,5.1l5.6-0.2    c-0.9,0.9-0.9,2.3,0,3.2c0.9,0.9,2.3,0.9,3.2,0c0.4-0.3,0.6-0.8,0.6-1.3c1.7,2.1,1.3,5.3,0.1,7.7c-1.2,2.6-3.2,4.8-4,7.6    c-0.8,2.9-0.7,6,0.4,8.9c1.8,5,5.5,9.2,10.3,11.6c0.6,0.2,1.1,0.6,1.5,1c0.3,0.5,0.5,1,0.6,1.5c0.9,2.6,4.1,4,6.8,3.4    c2-0.5,3.8-1.5,5.1-3c0.7,0.9,2.6,3.1,5.3,2c3.1-1.2,3.9-4.9,4.1-5.7c2.6-0.7,5-2,7.2-3.6c2.2-1.6,6.1-6.5,7.3-13.7    c0,0,4.8-2.9,2.4-8l2.1-6C1087.7,625.4,1086.9,623,1085,621.8z M1035.1,621.3L1035.1,621.3L1035.1,621.3    C1035.1,621.2,1035.1,621.3,1035.1,621.3z"/>
		<path class="st4" d="M963.3,537l-4.7,12.6l3.5,9.5l-2.3,29.2l31.4-0.3l-5.6-33.6l2.7,2.2l1.8,3.4l9.6-5.2c0,0-9.2-21.4-21.6-23.6    L963.3,537z"/>
		<polygon class="st2" points="85.7,463.1 66.3,463.1 56.4,433.2 56.4,427.6 95.5,427.6 95.5,433.2   "/>
		<rect x="56.4" y="427.6" class="st5" width="38.9" height="9"/>
		<rect x="63.3" y="643.4" class="st5" width="26.3" height="18.3"/>
		<path class="st2" d="M54.6,661.7h44.2c3.5,0,6.4,2.9,6.4,6.4l0,0v7.3l0,0H48.2l0,0v-7.3C48.2,664.5,51.1,661.7,54.6,661.7    C54.6,661.7,54.6,661.7,54.6,661.7z"/>
		<path class="st5" d="M1003.3,661.3l5.6-2.9c2.1,1,3.7,2.8,4.4,5L997,672C997.4,666.3,1003.3,661.3,1003.3,661.3z"/>
		<path class="st5" d="M951.9,667.7l5.9,0.3c0,0,2.4,3,1.7,6.5l-19.6,0.1C942.6,669.8,951.9,667.7,951.9,667.7z"/>
	</g>
	<g>
		<rect x="74.2" y="474.9" class="st8" width="3.5" height="153.6"/>
		<path class="st8" d="M85.4,635.8h-3.5v-3.1c0-0.4-0.4-0.8-0.8-0.8h-9.9c-0.4,0-0.8,0.4-0.8,0.8v3.1h-3.5v-3.1    c0-2.4,1.9-4.3,4.3-4.3h9.9c2.4,0,4.3,1.9,4.3,4.3V635.8z"/>
		<path class="st8" d="M91.3,661.7h-3.5v-14.7c0-1-0.8-1.8-1.8-1.8H66.8c-1,0-1.8,0.8-1.8,1.8v14.7h-3.5v-14.7    c0-2.9,2.4-5.3,5.3-5.3H86c2.9,0,5.3,2.4,5.3,5.3L91.3,661.7z"/>
		<path class="st8" d="M106.9,674.5h-3.5v-7.7c0-1.4-1.1-2.5-2.5-2.5H52.4c-1.4,0-2.5,1.1-2.5,2.5v7.1h-3.5v-7.1c0-3.3,2.7-6,6-6    h48.4c3.3,0,6,2.7,6,6V674.5z"/>
		<path class="st8" d="M87.5,464.8H65l-10.4-30.7v-8.2h42.7l-0.3,8.2l-0.1,0.2L87.5,464.8z M67.5,461.3h17.4l8.7-27.8l0.1-4.1H58.1    v4.1L67.5,461.3z"/>
		<rect x="69.1" y="520.9" class="st8" width="14.2" height="3.5"/>
		<rect x="68.9" y="472.9" class="st8" width="14.2" height="3.5"/>
		<rect x="60.3" y="461.3" class="st8" width="31.3" height="3.5"/>
		<rect y="672.7" class="st8" width="1099.8" height="3.5"/>
		<path class="st8" d="M827.1,639.9H606.4V460.8h18.2l97.9-117.5l104.6,118.6L827.1,639.9z M609.9,636.4h213.7l0-173.3l-101-114.5    l-96.4,115.7h-16.4V636.4z"/>
		<polygon class="st8" points="626.3,464.3 261.4,464.3 261.4,460.8 624.6,460.8 722.6,343.3 826.2,459.6 843,459.6 722.7,326.2     445.9,326.2 445.9,322.7 724.2,322.7 850.8,463.1 824.6,463.1 824.1,462.6 722.7,348.6   "/>
		<polygon class="st8" points="250.7,407.8 248.1,405.4 326.6,322.7 393,322.7 393,326.2 328.1,326.2   "/>
		<path class="st8" d="M747.3,640h-69.9l0.4-127.7h69.9L747.3,640z M680.9,636.5h62.9l0.4-120.7h-62.9L680.9,636.5z"/>
		<path class="st8" d="M730.3,640h-53l0.3-111.3h53L730.3,640z M680.9,636.5h46l0.3-104.3h-46L680.9,636.5z"/>
		<path class="st8" d="M765.8,640h-88.4l0.5-145.6h88.4L765.8,640z M680.9,636.5h81.4l0.5-138.6h-81.4L680.9,636.5z"/>
		<path class="st8" d="M850,676.2H651v-15.7h199V676.2z M654.5,672.7h192V664h-192V672.7z"/>
		<polygon class="st8" points="654.5,674.5 651,674.5 651,664 342.7,664 342.7,660.5 654.5,660.5   "/>
		<path class="st8" d="M421.2,416h-30V300.2l56.5,0.3v84.1L421.2,416z M394.7,412.5h24.9l24.6-29.1V304l-49.5-0.3V412.5z"/>
		<polygon class="st8" points="621.2,664 342.7,664 342.7,660.5 617.7,660.5 617.7,638.2 621.2,638.2   "/>
		<path class="st8" d="M834.8,664H617.6v-27.6h217.2V664z M621.1,660.5h210.2v-20.6H621.1L621.1,660.5z"/>
		<path class="st8" d="M786.8,652.8h-97.4v-16.3h97.4L786.8,652.8z M692.9,649.3h90.4V640h-90.4L692.9,649.3z"/>
		<path class="st8" d="M798.3,664h-98.9v-14.7h98.9V664z M703,660.5h91.9v-7.7H703V660.5z"/>
		<path class="st8" d="M703,664h-26.5v-27.6l16.4,0.1v12.8H703V664z M680,660.5h19.5v-7.7h-10.1V640l-9.4,0L680,660.5z"/>
		<path class="st8" d="M728.9,475.2c-14.8,0-26.8-12-26.8-26.8s12-26.8,26.8-26.8c14.8,0,26.8,12,26.8,26.8    C755.6,463.2,743.6,475.2,728.9,475.2z M728.9,425.2c-12.8,0-23.3,10.4-23.3,23.3s10.4,23.3,23.3,23.3c12.8,0,23.3-10.4,23.3-23.3    C752.1,435.6,741.7,425.2,728.9,425.2L728.9,425.2z"/>
		<path class="st8" d="M452.3,303.6H420v-14.5h32.2V303.6z M423.5,300.1h25.2v-7.5h-25.2V300.1z"/>
		<path class="st8" d="M423.5,303.6h-37.4v-14.5h37.4V303.6z M389.7,300.1H420v-7.5h-30.4V300.1z"/>
		<path class="st8" d="M573.9,592.7h-75.9v-78.7h75.9V592.7z M501.6,589.2h68.9v-71.7h-68.9V589.2z"/>
		<path class="st8" d="M467.8,592.7h-75.9v-78.7h75.9L467.8,592.7z M395.4,589.2h68.9v-71.7h-68.9V589.2z"/>
		<path class="st8" d="M363.9,592.7H288v-78.7h75.9V592.7z M291.5,589.2h68.9v-71.7h-68.9V589.2z"/>
		<polygon class="st8" points="609.9,639.9 286.4,639.9 286.4,636.4 606.4,636.4 606.4,462.6 609.9,462.6   "/>
		<rect x="234.3" y="529.7" class="st8" width="3.5" height="83.7"/>
		<polygon class="st8" points="620.3,450.2 259.2,450.2 259.2,446.7 618.6,446.7 721.2,323.3 723.9,325.5   "/>
		<rect x="417.5" y="301.8" class="st8" width="3.5" height="112.4"/>
		<path class="st8" d="M342.9,676.3H145.5l0.1-1.9c1.9-23.6,22.5-41.3,46.1-39.4c5.1,0.4,10.1,1.7,14.7,3.9    c2.6-14.7,15.3-25.4,30.2-25.5c14.7-0.1,27.4,10.4,30.1,24.9c6.4-3.4,13.9-4,20.7-1.6c8,2.8,14.1,9.4,16.4,17.6h5.9    c7.1-8.5,19.7-9.7,28.2-2.7c6.9,5.7,9.2,15.4,5.5,23.6L342.9,676.3z M149.3,672.8h191.2c0.7-1.8,1-3.7,1-5.7    c0-9.1-7.4-16.5-16.5-16.5c-5.2,0-10.1,2.4-13.2,6.6l-0.5,0.7H301l-0.3-1.4c-2.2-10.3-11.3-17.7-21.8-17.7    c-4.5,0-8.8,1.3-12.5,3.8l-2.4,1.7l-0.3-2.9c-1.5-14.9-14.7-25.8-29.6-24.3c-13,1.3-23.2,11.6-24.3,24.7l-0.2,2.7l-2.3-1.3    c-19.2-10.3-43-3.2-53.4,16C151.4,663.3,150,668,149.3,672.8z"/>
		<rect x="193.5" y="458.8" class="st8" width="3.5" height="179"/>
		
			<rect x="182.1" y="512.5" transform="matrix(0.4492 -0.8934 0.8934 0.4492 -346.014 467.1923)" class="st8" width="47.6" height="3.5"/>
		<path class="st8" d="M195.2,543.3c-38.5,0-69.7-31.2-69.7-69.7c0-20.2,13.5-70,26.9-108.8c7.8-22.6,15.6-42,22.6-56.1    c11.1-22.5,16.9-25.1,20.3-25.1c19.2,0,56.5,115.5,66.4,164.5c2.2,11.1,3.4,19.6,3.4,25.5C264.9,512,233.7,543.2,195.2,543.3z     M195.2,287c-6.1,0-20.8,24.4-39.5,78.9c-15.5,44.9-26.7,90.2-26.7,107.6c0,36.6,29.7,66.2,66.2,66.2s66.2-29.7,66.2-66.2    c0-5.6-1.1-13.9-3.3-24.8c-5.6-27.8-17.8-68.9-30.4-102.4C211.2,302.6,200.1,287,195.2,287z"/>
		<rect x="867.8" y="511.5" class="st8" width="3.5" height="163.5"/>
		
			<rect x="857.6" y="560.4" transform="matrix(0.4492 -0.8934 0.8934 0.4492 -17.8993 1095.2183)" class="st8" width="43.5" height="3.5"/>
		<path class="st8" d="M869.6,588.8c-16.9,0-33.2-6.7-45.1-18.7l2.5-2.5c23.6,23.6,61.8,23.6,85.3,0c11.3-11.3,17.7-26.7,17.7-42.7    c0-15.9-10.3-57.3-24.4-98.3c-17.1-49.7-30.4-71.9-36-71.9c-6.3,0-22.2,29.1-40.2,84.7l-3.3-1.1c6.6-20.4,29.4-87.1,43.6-87.1    c11.9,0,29.7,46.5,39.3,74.3c12.2,35.4,24.6,81,24.6,99.4C933.4,560.2,904.8,588.8,869.6,588.8z"/>
		<path class="st8" d="M1033.2,618.3c-1.9-4.7,0.3-10,4.9-12c0.9-0.4,1.9-0.6,2.8-0.7c1.3,0.2,2.5,0.8,3.4,1.8c0.1,0,0.2,0,0.3,0    c2.7,0.4,4.6,2.8,4.3,5.6c-0.2,1.5-1.1,2.8-2.4,3.6l-1.8-3c0.7-0.4,0.9-1.3,0.6-2c-0.3-0.5-0.9-0.8-1.5-0.7l-1.1,0.2l-0.6-1    c-0.6-1-1.8-1.3-2.8-0.7c-0.4,0.2-0.7,0.5-0.8,0.9l-0.7,1.5l-1.6-0.6c-0.2-0.1-0.3-0.1-0.5-0.2c-1.1-0.2-2.2,0.7-2.3,1.8    c-0.1,0.9,0.4,1.8,1.3,2.2L1033.2,618.3z"/>
		<path class="st8" d="M1035,627.3c-2.2,0-4-1.8-4-4c0-0.8,0.2-1.6,0.7-2.3l2.9,2c-0.2,0.2-0.1,0.6,0.1,0.7s0.6,0.1,0.7-0.1    c0,0,0.1-0.1,0.1-0.1l3.3,1.1C1038.3,626.2,1036.8,627.3,1035,627.3L1035,627.3z"/>
		<path class="st8" d="M1062,667c-2.8,0-4.8-2.2-5.6-3.6l3-1.7c0.1,0.3,1.5,2.4,3.4,1.7c2.5-1,3-4.5,3-4.5l3.5,0.5    c0,0.2-0.8,5.6-5.2,7.3C1063.5,666.8,1062.8,667,1062,667z"/>
		<path class="st8" d="M1025.7,623.9l0.7-2.3c1.4-4.8,7.2-6.4,7.5-6.5l0.9,3.4c-1.2,0.4-2.3,1-3.3,1.7l3.8-0.1l0.1,3.5L1025.7,623.9    z"/>
		<path class="st8" d="M1051.9,667.6c-3,0-6.2-1.6-7.3-4.7c-0.1-0.2-0.1-0.3-0.2-0.5c0-0.2-0.1-0.4-0.2-0.6    c-0.2-0.2-0.5-0.3-0.8-0.4l-0.1-0.1c-5.2-2.6-9.3-7.1-11.2-12.5c-1.2-3.2-1.4-6.7-0.4-10c0.6-1.7,1.5-3.4,2.5-4.9    c0.6-0.9,1.1-1.9,1.6-2.9c0.9-2,1.3-4.6,0-6c-2.5-1.9-3.9-4.8-3.9-7.9l0-0.3l0.1-0.3c1.3-3.7,5.9-5.7,9.3-5.3    c3.5,0.5,6.5,2.7,8,5.8c1.4,2.9,1.9,6.2,1.4,9.4l-0.1,0.6c-0.2,1.3-0.4,2.6,0.1,3.3c0.4,0.5,1,0.8,1.6,1c2.9,1,6,0.7,8.7-0.8    c1-0.5,2.1-0.9,3.2-1.1c0.9-0.1,1.8-0.4,2.4-1c2-2.2,3.4-5.9,4.7-9.5c0.6-1.7,1.2-3.2,1.9-4.6l3.1-7.4c0.8-1.8,2.9-2.6,4.7-1.8    c1.7,0.7,2.5,2.6,2,4.4l-0.3,0.6c1.4,1.4,2,3.4,1.8,5.4c1.7,1.4,2.5,3.6,2.1,5.7c1.9,1.8,2.5,4.6,1.6,7l-1.9,5.3    c1.3,3.3,0.2,7-2.7,9.1c-1.5,7.6-5.8,12.5-7.9,14.1c-3.7,3-8.3,4.6-13.1,4.5l-0.2,0c-0.3,0-0.6,0-0.9,0c-0.2,0.2-0.3,0.3-0.4,0.5    l-0.1,0.1c-1.5,2.1-4.1,4.8-7.7,5.5C1052.9,667.6,1052.4,667.6,1051.9,667.6z M1035.4,617.5c0.1,1.9,1,3.6,2.5,4.8l0.3,0.2    c2.8,2.8,2.1,7.1,0.8,10c-0.5,1.1-1.1,2.2-1.8,3.2c-0.9,1.3-1.6,2.7-2.1,4.2c-0.7,2.6-0.5,5.3,0.4,7.8c1.6,4.6,5,8.4,9.4,10.6    l0.1,0.1c0.8,0.3,1.5,0.9,2.1,1.5c0.3,0.5,0.6,1.1,0.7,1.6c0,0.1,0.1,0.2,0.1,0.4c0.6,1.8,3,2.6,4.8,2.3c2.5-0.5,4.4-2.5,5.5-4.1    c0.4-0.6,0.9-1.1,1.5-1.6c0.9-0.5,1.9-0.7,2.9-0.6l0.2,0c3.9,0.1,7.2-1.1,10.9-3.8c2.1-1.5,5.6-6.2,6.6-12.6l0.1-0.8l0.7-0.4    c2-1.1,2.8-3.7,1.7-5.8l-0.3-0.7l2.4-6.7c0.5-1.4,0-2.9-1.2-3.7l-1.1-0.8l0.5-1.3c0.5-1.2,0-2.6-1.1-3.3l-1.6-0.6l0.6-1.6    c0.5-1.4,0-2.9-1.2-3.7l-1.2-0.8l1.3-2.8l-0.1-0.1l-3.1,7.5c-0.6,1.4-1.2,2.9-1.8,4.5c-1.4,3.7-3,7.8-5.4,10.6    c-1.2,1.2-2.7,1.9-4.3,2.1c-0.8,0.1-1.6,0.4-2.3,0.7c-3.5,1.9-7.7,2.3-11.5,1c-1.3-0.4-2.5-1.2-3.3-2.3c-1.3-1.9-1-4.1-0.7-5.9    l0.1-0.5c0.4-2.5,0.1-5.1-1-7.4c-1-2.1-3-3.6-5.3-4C1038.7,614.5,1036.5,615.6,1035.4,617.5z"/>
		<path class="st9" d="M1036.6,616.9l-0.4,1.2h2.4C1038.2,617.4,1037.4,616.9,1036.6,616.9z"/>
		<path class="st8" d="M1056.6,658c-0.2,0-0.4,0-0.7,0c-0.4-0.1-0.9-0.1-1.3-0.2c-10.7-1.7-14-8.7-16.1-16.1l3.4-0.9    c2.1,7.4,5,12.2,13.3,13.5c0.4,0.1,0.8,0.1,1.2,0.2c1.2,0.1,2.4-0.7,2.5-2c0-0.1,0-0.2,0-0.3v-1.8l2.8,0c1.3,0,2.3-1,2.3-2.3v-1.8    h2.4c1.3,0,2.3-1,2.3-2.3h3.5c-2.7,3.8-6.1,7.2-10.1,9.8C1061.4,656.3,1059.2,658,1056.6,658L1056.6,658z"/>
		
			<rect x="1055.9" y="668.4" transform="matrix(0.2166 -0.9763 0.9763 0.2166 176.9647 1560.8215)" class="st8" width="10.1" height="3.5"/>
		
			<rect x="1045" y="668.7" transform="matrix(0.2266 -0.974 0.974 0.2266 158.8724 1540.9563)" class="st8" width="9.6" height="3.5"/>
		<path class="st8" d="M995.1,675l0.2-3.1c0.4-6.4,6.6-11.7,6.8-11.9l2.2,2.7c-1.9,1.7-3.4,3.6-4.6,5.9l11.2-5.9    c-0.7-1.1-1.7-2-2.8-2.5l1.3-3.2c2.6,1.2,4.6,3.4,5.5,6.1l0.4,1.4L995.1,675z"/>
		<path class="st8" d="M936.8,676.2l1.5-2.6c3-5.2,12.1-7.4,13.1-7.6l0.8,3.4c-2.9,0.7-5.6,1.8-8.2,3.3l13.7,0    c-0.1-1.3-0.6-2.6-1.4-3.7l2.7-2.2c0.1,0.2,3,3.8,2,8l-0.3,1.4L936.8,676.2z"/>
		<path class="st8" d="M962.4,601.2c-1.3-4.5-2-9.2-2.3-13.9l3.5,0c0.3,4.4,1,8.8,2.2,13.1L962.4,601.2z"/>
		<path class="st8" d="M1004.1,663.2c-0.4,0-0.8,0-1.2-0.1l-0.6-0.1l-0.4-0.5L976,630.8c-0.1-0.1-1.9-2.9-4.1-6.9l3.1-1.7    c2,3.6,3.7,6.2,4,6.7l25.2,30.9c1-0.1,1.9-0.6,2.5-1.4c-2.1-3.9-4-7.9-5.7-11.9c-3.6-8.3-7.7-17.8-12.9-21.3l-1-0.7l0.3-1.2    c1.7-6.9,1.4-21.6,1.4-21.7l3.5-0.1c0,0.6,0.3,13.9-1.2,21.5c5.5,4.4,9.4,13.4,13.1,22.1c2.1,4.8,4.1,9.4,6.1,12.5l0.6,1l-0.6,1    C1010.2,659.6,1007.7,663.2,1004.1,663.2z"/>
		<path class="st8" d="M988.8,535.9l-8.2-27.7l3.4-1l5.9,19.8l2-3.5l-0.1-9l4.1,2.8l1.7-2.7c-0.5-1.9-2.1-7.6-6.1-10.8    c-4.5-3.6-7.8-2-8-1.9l-1.7-3.1c0.2-0.1,5.4-2.9,11.8,2.2c5.9,4.7,7.5,13.1,7.5,13.5l0.1,0.7l-4.3,7l-1.6-1.1l0,3.3L988.8,535.9z"/>
		<path class="st8" d="M969.6,528.2c-0.7,0-1.4-0.1-2.1-0.3c-6.2-1.9-8.8-12-6.7-19c0.3-0.9,1-1.5,1.9-1.5l0,0l-0.1,3.5    c0.7,0,1.3-0.4,1.5-1.1c-1.7,5.9,0.6,13.6,4.4,14.7c2.4,0.7,6.1-1.2,8.9-4.6l1.1,0.9l1.9-0.4l0.2,1.1l-0.5,0.6    C977,525.9,973.1,528.1,969.6,528.2z"/>
		<path class="st8" d="M977.8,524.9l-0.7-3.6l-5.4-10.2H962l-1.4-1.7l0.3-0.9c2.2-7.1,9.5-11.7,15.5-9.9c3.1,1.1,5.6,3.4,6.8,6.5    c1.4,3.3,1.6,7,0.6,10.5c-0.8,2.4-2,4.6-3.6,6.5L977.8,524.9z M965,507.6h8.8l5.3,10c0.6-1,1-2,1.3-3c0.8-2.6,0.7-5.5-0.4-8.1    c-0.8-2.1-2.5-3.8-4.6-4.5C972.1,500.9,967.3,503.1,965,507.6z"/>
		<path class="st8" d="M998.8,598.9c-1.1,0-2.1-0.4-2.9-1c-1.2-0.9-2-2.3-2.2-3.8l-0.5-5.5c0-0.1-1-15.7,0.1-23.3l-4.2-6.1l10.3-6.5    l4.9,9.5l0,0.3c0.9,5.4-0.2,9.3-1.4,13.5c-1.1,3.5-1.7,7.1-1.9,10.8l2.3,4.4c1.3,2.6,0.3,5.8-2.3,7.1c-0.4,0.2-0.9,0.4-1.3,0.5    C999.4,598.9,999.1,598.9,998.8,598.9z M994,560.2l2.9,4.3l-0.1,0.7c-1.2,6.9-0.2,22.9-0.2,23.1l0.5,5.5c0.1,0.5,0.3,1,0.8,1.3    c0.3,0.3,0.7,0.4,1.1,0.3c1-0.2,1.6-1.2,1.4-2.1c0-0.2-0.1-0.3-0.2-0.5l-2.7-5.2v-0.4c0.1-4.1,0.7-8.2,2-12.1    c1.1-3.9,2-7.3,1.3-11.8l-2.9-5.6L994,560.2z"/>
		<path class="st8" d="M938.2,588.4c-1.2,0-2.4-0.4-3.3-1.2c-0.4-0.3-0.7-0.6-1-1c-0.8-1.1-1.1-2.6-0.8-4c0.3-1.5,1.3-2.8,2.6-3.5    l4.8-2.7c0.9-0.7,10.2-8,16.4-12.9l3.1-6.1l3.1,1.6l-3.4,6.8l-0.3,0.2c-16.7,13.2-17,13.3-17.1,13.4l-4.8,2.7    c-0.5,0.3-0.8,0.7-0.9,1.2c-0.1,0.4,0,0.8,0.2,1.2c0.6,0.8,1.7,1,2.5,0.4c0.1-0.1,0.2-0.2,0.3-0.3l3.4-4.3c0.3-0.3,0.3-0.3,17-10    l1.8,3c-5.9,3.4-14.7,8.5-16.3,9.4l-3.3,4C941.4,587.7,939.8,588.4,938.2,588.4z"/>
		<path class="st8" d="M954.6,670.3c-1.4,0-2.8-0.4-3.9-1.3l-0.7-0.6l5.5-43.6l10.8-38.4l3.4,0.9l-10.8,38.3l-5.1,41.1    c0.9,0.1,1.7,0.1,2.6-0.1c1.3-4.3,2.9-8.6,4.4-12.7c3.5-9.5,6.9-18.5,6.6-26.3l0-0.7l17.7-18.7c3.7-4.4,5.1-10.4,3.9-16l-1.4-5.9    l3.4-0.8l1.4,5.9c1.5,6.7-0.2,13.8-4.6,19.1l-0.1,0.1L971,628.1c0,8.3-3.3,17.4-6.9,26.9c-1.6,4.4-3.3,8.9-4.6,13.4l-0.2,0.8    l-0.8,0.3C957.2,670,955.9,670.3,954.6,670.3z"/>
		<path class="st8" d="M957.7,589.4l2.4-30.7l-3.6-9.9l7.4-13.9l3.1,1.6l-6.6,12.5l3.4,9.1l-2.2,27.7l27.4-0.3l-6.1-36.7l7.1,6.6    l1.3,2.3l5.4-3.4c-2-4.7-9.3-20.5-19-22.2l0.6-3.4c13.3,2.3,21.9,24.8,22.2,25.7l0.5,1.3l-11.1,6.9l-1.7-3.1l4.9,29.3L957.7,589.4    z"/>
		<path class="st8" d="M965.9,537.5c-0.2,0-0.4,0-0.6,0l-2.8-0.1l1.4-2.5c0-0.1,2.7-5.1,3-9.8l3.5,0.2c-0.2,3-1,5.9-2.1,8.6    c2.9-0.3,5.6-1.6,7.7-3.7l-2-6.7l3.4-1l2.5,8.4l-0.5,0.7C979.1,531.9,974.8,537.5,965.9,537.5z"/>
	</g>
</g>
<path class="st10" d="M935.5,149.8c-7.4-7.4-20-11.2-32.7-11.4c-0.1,0-0.1,0-0.2,0c-0.2,0-0.4,0-0.5,0c-0.2,0-0.3,0-0.5,0  c-0.1,0-0.2,0-0.2,0c-12.7,0.2-25.3,4.1-32.7,11.5c-7.2,7.1-11,17.8-9.1,29.7c1.3,8.3,6.2,17.8,12.1,27.1l25,37.5l-3.6,19.5l0.1,0  c0.5,0,17.4,0,17.9,0l0.1,0l-3.6-19.5l25-37.5c5.9-9.3,10.8-18.8,12.1-27.1C946.5,167.6,942.6,156.9,935.5,149.8z M902,251.8  c-2,0-3.9,0-4.8,0l1.2-6.2c2.4,0.1,4.8,0.1,7.2,0l1.2,6.2C906,251.8,904.1,251.8,902,251.8L902,251.8z M905.8,243.8l-0.2-1.2  c-0.1-0.3-0.2-0.4-0.4-0.4c-0.4,0-0.7,0-1,0c0,0,0-1.6,0-1.6c0-0.1-0.1-0.3-0.3-0.3h-3.6c-0.1,0-0.3,0.1-0.3,0.3v1.6  c-0.3,0-0.6,0-1,0c-0.2,0-0.4,0.2-0.4,0.4c0,0-0.3,1.3-0.3,1.3l-5.4-7.6h18.2L905.8,243.8z"/>
<path class="st2" d="M245.7,139c0,0,2.7-5.4,8.3-6.4c5.5-1.1,20.1-3.5,22.8-3.6c2.7-0.1,5.2-3.2,5.2-3.2s10.2-7.1,16.4-8.6  c6.3-1.6,16.3-3.1,16.3-3.1l56.7-11.2l35.4,0.3l-22.4,12.6h30.1l9-8.6c0,0,3.6-2.3,7-1.9s4.5,0.9,3.9,6.3c-0.6,5.4-6.4,20-6.4,20  s-3.8,3.9-11.1,3.8c-7.3-0.1-19.9,0.1-19.9,0.1l-17.4,6.2c0,0-23.2,8.8-26.4,10c-3.2,1.2-15.6,1.5-20.5,1.6c-4.9,0.2-42,0-42,0  l-19.5,0.1c0,0-11.7-2.5-15.6-4.3C251.7,147.1,246.5,144,245.7,139z"/>
<path class="st2" d="M289.6,165.9h82.9c0,0,6.1,0.7,6.2,3.5s-10.6,5.8-10.6,5.8s-30.1,3.7-39.7,3.1s-25.5-2.4-28.5-3  C297,174.7,286.9,173.5,289.6,165.9z"/>
<path class="st2" d="M266.6,165.9c0-0.4,16.2,0,16.2,0s0.4,7.2,5.2,10.7c0,0-8.5-0.4-13.2-2.1C270.1,172.7,266.2,170,266.6,165.9z"/>
<g>
	<path class="st0" d="M281.1,129.5c0,0,3.1-11.2,20.9-13.1s18.3,0,18.3,0L312,127c0,0-2.6,2-9.5,2   C295.7,129,281.1,129.5,281.1,129.5z"/>
	<g>
		<path class="st8" d="M273.4,154.9h69.9c7.8,0,15.9-3.6,16.3-3.8c0.7-0.3,19.8-7.8,25.3-10.3c4.9-2.2,12.8-3.8,13.9-4h22.1    c5.3,0,8.7-2.5,9.7-7.2c0.8-3.8,4.6-15,4.7-15.1c0.2-0.5,2.5-6.1,0.4-9.3c-0.6-1-1.9-2.1-4.5-2.1c-7,0-9.7,3.1-9.9,3.4l-7.5,7.7    h-33c-0.9,0-1.7,0.8-1.7,1.7s0.8,1.7,1.7,1.7h33.7c0.5,0,0.9-0.2,1.2-0.5l8.1-8.4c0.2-0.2,2-2.3,7.4-2.3c1.2,0,1.5,0.5,1.6,0.6    c0.8,1.2,0.1,4.4-0.7,6.2c-0.2,0.6-4,11.7-4.8,15.6c-0.4,1.9-1.5,4.5-6.4,4.5h-22.3c-0.1,0-0.2,0-0.3,0c-0.4,0.1-9.2,1.7-14.9,4.3    c-5.5,2.5-25.1,10.2-25.3,10.3c-0.1,0.1-7.9,3.5-15,3.5h-69.8c-6.8-0.8-25.7-4.5-25.7-11.7c0-6.5,19.5-9,29-9.2h28.8    c0.8,0.1,5.7,0.3,9.3-3.6c3.4-3.6,8.1-9.9,8.3-10.2c0.4-0.5,0.4-1.2,0.2-1.7c-0.3-0.6-0.8-0.9-1.5-1l-62.4-2.2    c-0.9-0.1-1.7,0.7-1.7,1.6c0,0.9,0.7,1.7,1.6,1.7l59.1,2.1c-1.7,2.2-4.1,5.2-6.1,7.3c-2.7,2.9-6.4,2.6-6.6,2.5c-0.1,0-0.1,0-0.2,0    h-29c-3.3,0.1-32.3,0.9-32.3,12.5c0,11.5,25.8,14.7,28.8,15C273.3,154.9,273.3,154.9,273.4,154.9z"/>
		<path class="st8" d="M279.5,130.6c0.7,0,1.3-0.4,1.6-1.1c1.8-5.2,10-8.5,12.6-9.6l0.6-0.3c1.7-0.6,26.2-5.2,40.8-7.9    c7.6-1.4,13.6-2.6,14.9-2.8c3.7-0.8,18.9-4,20.7-4.4H402l-32.2,14.6c-0.8,0.4-1.2,1.4-0.8,2.2c0.4,0.8,1.4,1.2,2.2,0.8l39.3-17.8    c0.7-0.3,1.1-1.1,1-1.9s-0.9-1.3-1.6-1.3h-39.3c-0.1,0-0.2,0-0.4,0c0,0-17,3.6-20.9,4.5c-1.2,0.3-7.2,1.4-14.8,2.8    c-27.1,5.1-40.2,7.6-41.5,8.1l-0.6,0.2c-3,1.2-12.3,5-14.6,11.6c-0.3,0.9,0.2,1.8,1,2.1C279.1,130.6,279.3,130.6,279.5,130.6z"/>
		<path class="st8" d="M328.8,122.6h35.4c0.9,0,1.7-0.8,1.7-1.7s-0.8-1.7-1.7-1.7h-35.4c-0.9,0-1.7,0.8-1.7,1.7    S327.9,122.6,328.8,122.6z"/>
		<path class="st8" d="M346.5,167c0.1,0,0.3,0,0.4-0.1c0.9-0.2,1.4-1.2,1.2-2.1l-3.3-12.1c-0.2-0.9-1.2-1.4-2.1-1.2    c-0.9,0.2-1.4,1.2-1.2,2.1l3.3,12.1C345.1,166.5,345.8,167,346.5,167z"/>
		<path class="st8" d="M297.6,167.7c0.7,0,1.3-0.4,1.6-1.1l4.7-12.8c0.3-0.9-0.1-1.8-1-2.2c-0.9-0.3-1.8,0.1-2.2,1l-4.7,12.8    c-0.3,0.9,0.1,1.8,1,2.2C297.2,167.6,297.4,167.7,297.6,167.7z"/>
		<path class="st8" d="M277.8,167.2c0.7,0,1.4-0.4,1.6-1.1l4.2-12.3c0.3-0.9-0.2-1.8-1.1-2.1c-0.9-0.3-1.8,0.2-2.1,1.1l-4.2,12.3    c-0.3,0.9,0.2,1.8,1.1,2.1C277.5,167.1,277.7,167.2,277.8,167.2z"/>
		<path class="st8" d="M287.6,178.2c0.9,0,1.6-0.7,1.7-1.6c0.1-0.9-0.6-1.7-1.6-1.8c-14.1-0.9-18.2-4.1-19.5-6    c-0.3-0.5-0.5-0.9-0.5-1.2h14.9c0.9,0,1.7-0.8,1.7-1.7s-0.8-1.7-1.7-1.7h-16.4c-0.7,0-1.3,0.4-1.6,1.1c-0.1,0.3-1,2.6,0.7,5.2    c2.7,4.3,10.1,6.9,22.2,7.7C287.5,178.2,287.6,178.2,287.6,178.2z"/>
		<path class="st8" d="M307.5,178.2c-12.8-1.2-19.7-3.8-21.3-7.9c-0.9-2.4,0.3-4.6,1.2-5.5c0.3-0.3,0.8-0.5,1.2-0.5h74.1    c0,0,0.1,0,0.1,0c0,0,3.9,0.3,9,0c6.3-0.3,8.4,3.5,8.5,3.7c0.2,0.3,0.2,0.7,0.2,1c-1,8.2-25.2,10.4-46.7,10.4    C323.5,179.3,313.7,178.8,307.5,178.2z M372,167.7c-5,0.3-8.8,0-9.3,0h-73.2c-0.2,0.4-0.3,0.9-0.1,1.5c0.4,1,2.8,4.3,18.4,5.7    c31.3,2.9,66.3-0.1,69.3-5.7C376.4,168.5,374.9,167.5,372,167.7z"/>
		<path class="st8" d="M254.7,166.4c0.6,0,1.2-0.3,1.5-1c0.4-0.8,0.1-1.8-0.8-2.3c-4.8-2.3-4.8-7.8-4.8-8l-0.1-19.6    c0-0.9-0.8-1.7-1.7-1.7c0,0,0,0,0,0c-0.9,0-1.7,0.8-1.7,1.7l0.1,19.6c0,0.3,0,7.8,6.7,11.1C254.2,166.4,254.4,166.4,254.7,166.4z"/>
		<path class="st8" d="M249,146.1C249,146.1,249,146.1,249,146.1c0.9,0,1.7-0.8,1.7-1.7l-0.1-19.6c0-0.3,0-7.8-6.7-11.1    c-0.8-0.4-1.8-0.1-2.3,0.8c-0.4,0.8-0.1,1.8,0.8,2.3c4.8,2.3,4.8,7.8,4.8,8l0.1,19.6C247.3,145.3,248.1,146.1,249,146.1z"/>
		<path class="st8" d="M246.1,113.6"/>
	</g>
	<g>
		<rect x="493.8" y="84.9" class="st2" width="303.8" height="92.5"/>
		<path class="st8" d="M798.6,178.4H492.8V83.9h305.8V178.4z M494.8,176.4h301.8V85.9H494.8V176.4z"/>
	</g>
	<g>
		<circle class="st11" cx="574.9" cy="129" r="9.1"/>
		<circle class="st12" cx="729.3" cy="129" r="9.1"/>
		<path class="st8" d="M574.7,141.1h-5.9c0.8,3.9,4,5.8,9.6,5.8c6.3,0,10.2-1,12.4-2.5h0.5v3.1c0,5-4.1,9.5-15.3,9.5    c-13.6,0-20.7-9.1-20.7-20c0-11.9,8.1-21.6,20.2-21.6c10.3,0,18.3,5.8,18.3,15.8C593.9,139.1,587.9,141.1,574.7,141.1z     M575.6,125.6c-4.8,0-6.8,3.1-7.1,6.9h5.3c6.4,0,7.6-1,7.6-2.7C581.3,127.7,579.5,125.6,575.6,125.6L575.6,125.6z"/>
		<path class="st8" d="M631.3,155.9c-6,0-7.9-2-7.9-8v-13.8c0-5.3-1.8-7.6-6.4-7.6c-3.9,0-6.1,2.6-6.1,7.4v22h-4.6c-5.8,0-9-2.3-9-8    v-13.8c0-11.3,7.5-18.6,20-18.6c13.9,0,19.6,7.4,19.6,19v21.4H631.3z"/>
		<path class="st8" d="M660.9,157.1c-11.6,0-20.5-9.5-20.5-20.1c0-13.2,8.1-21.4,18.6-21.4c5,0,8.7,2.2,10.1,5.3v-17.7h4.9    c5.4,0,8.4,2.9,8.4,9.5v22.8C682.3,149.6,676.5,157.1,660.9,157.1z M660.6,126c-3.6,0-6.7,3.8-6.7,9.8c0,7.7,3.6,10.9,8.5,10.9    c4.2,0,6.4-3.3,6.4-9.4C668.8,128.4,665.4,126,660.6,126L660.6,126z"/>
		<path class="st8" d="M700.3,156.5c-7.2,0-13.4-4.3-13.4-13.6v-39.9h4.8c5.9,0,8.8,2.7,8.8,9.4v28.5c0,3.5,1.9,4.6,5.7,4.6h3v4.7    C709.1,155,704.6,156.5,700.3,156.5z"/>
		<path class="st8" d="M729.3,141.1h-5.9c0.8,3.9,4,5.8,9.6,5.8c6.3,0,10.2-1,12.4-2.5h0.5v3.1c0,5-4.1,9.5-15.3,9.5    c-13.6,0-20.7-9.1-20.7-20c0-11.9,8.1-21.6,20.2-21.6c10.3,0,18.3,5.8,18.3,15.8C748.6,139.1,742.6,141.1,729.3,141.1z     M730.3,125.6c-4.8,0-6.8,3.1-7.1,6.9h5.3c6.4,0,7.6-1,7.6-2.7C736,127.7,734.2,125.6,730.3,125.6L730.3,125.6z"/>
		<path class="st8" d="M552.6,145.2c-0.3,0-0.7,0-1,0h-2.1c-6.1,0-7.9-1.9-7.9-8.4v-25.4c0-5.6-2.5-8.4-7.9-8.4H528v34.7    c0,12.4,5.4,18.7,17.9,18.7h5.7c2.3,0.1,4.5-0.3,6.6-1.1C555.7,152.4,553.8,148.9,552.6,145.2z"/>
		<g>
			<path class="st8" d="M760.3,103.1l0,1.6h-2.7l0,7.5h-1.9l0-7.5h-2.7l0-1.6H760.3z"/>
			<path class="st8" d="M767.5,103.1h2.7l0,9.1h-1.8l0-6.2c0-0.2,0-0.4,0-0.7c0-0.3,0-0.6,0-0.7l-1.7,7.7h-1.9l-1.7-7.7     c0,0.2,0,0.4,0,0.7c0,0.3,0,0.6,0,0.7l0,6.2h-1.8l0-9.1h2.8l1.7,7.2L767.5,103.1z"/>
		</g>
	</g>
	<rect x="426.3" y="102" transform="matrix(0.8632 -0.5048 0.5048 0.8632 11.0194 247.6045)" class="st8" width="72.2" height="3"/>
	<rect x="460.1" y="112.2" transform="matrix(0.601 -0.7992 0.7992 0.601 62.2621 429.7615)" class="st8" width="3" height="80.7"/>
	<polygon class="st1" points="415.6,128.9 323.6,129 327.1,122.6 419.2,122.5  "/>
	<polygon class="st4" points="375.6,134.6 320.3,134.7 323.8,128.2 379.1,128.2  "/>
</g>
</svg>