<svg version="1.1" id="Layer_1" xmlns="http://www.w3.org/2000/svg" xmlns:xlink="http://www.w3.org/1999/xlink" x="0px" y="0px" viewBox="0 0 216 108" enable-background="new 0 0 216 108" xml:space="preserve">
    <g>
        <g>
            <g>
                <path fill="#898C8D" d="M63.1,70.1c0-0.4,0.1-0.8,0.2-1.3s0.4-0.8,0.7-1.1s0.6-0.6,1.1-0.8c0.4-0.2,0.9-0.3,1.4-0.3
                    c0.6,0,1.2,0.1,1.6,0.4c0.4,0.3,0.8,0.7,1,1.1l-0.7,0.5c-0.1-0.2-0.2-0.4-0.4-0.6s-0.3-0.3-0.5-0.4c-0.2-0.1-0.4-0.2-0.5-0.2
                    c-0.2,0-0.4-0.1-0.6-0.1c-0.4,0-0.7,0.1-1,0.2c-0.3,0.2-0.6,0.4-0.8,0.6c-0.2,0.3-0.4,0.6-0.5,0.9s-0.2,0.7-0.2,1
                    c0,0.4,0.1,0.7,0.2,1.1s0.3,0.6,0.5,0.9s0.5,0.5,0.8,0.6c0.3,0.2,0.6,0.2,1,0.2c0.2,0,0.4,0,0.6-0.1c0.2-0.1,0.4-0.1,0.6-0.2
                    s0.3-0.2,0.5-0.4c0.2-0.2,0.3-0.3,0.4-0.6l0.8,0.4c-0.1,0.3-0.3,0.5-0.5,0.7c-0.2,0.2-0.4,0.4-0.7,0.5s-0.5,0.2-0.8,0.3
                    c-0.3,0.1-0.6,0.1-0.8,0.1c-0.5,0-0.9-0.1-1.3-0.3c-0.4-0.2-0.8-0.5-1-0.8c-0.3-0.3-0.5-0.7-0.7-1.2C63.1,71,63.1,70.6,63.1,70.1
                    z"></path>
                <path fill="#898C8D" d="M77.9,66.6h0.8l2.9,7.1h-1l-0.8-2.1h-3l-0.8,2.1h-1L77.9,66.6z M79.5,70.9l-1.3-3.3l-1.3,3.3H79.5z"></path>
                <path fill="#898C8D" d="M87.9,73.7v-7.1h3c0.3,0,0.6,0.1,0.9,0.2c0.3,0.1,0.5,0.3,0.7,0.5c0.2,0.2,0.3,0.5,0.4,0.7
                    c0.1,0.3,0.2,0.5,0.2,0.8c0,0.2,0,0.5-0.1,0.7c-0.1,0.2-0.2,0.4-0.3,0.6c-0.1,0.2-0.3,0.3-0.5,0.5c-0.2,0.1-0.4,0.2-0.6,0.3
                    l1.7,2.7h-1l-1.6-2.5h-1.9v2.5L87.9,73.7L87.9,73.7z M88.8,70.4H91c0.2,0,0.3,0,0.5-0.1s0.3-0.2,0.4-0.3c0.1-0.1,0.2-0.3,0.2-0.5
                    s0.1-0.4,0.1-0.6c0-0.2,0-0.4-0.1-0.6c-0.1-0.2-0.2-0.3-0.3-0.5c-0.1-0.1-0.2-0.2-0.4-0.3s-0.3-0.1-0.5-0.1h-2.1
                    C88.8,67.4,88.8,70.4,88.8,70.4z"></path>
                <path fill="#898C8D" d="M104.8,72.9v0.8H100v-7.1h4.7v0.8h-3.8v2.3h3.3v0.8h-3.3v2.4C100.9,72.9,104.8,72.9,104.8,72.9z"></path>
                <path fill="#898C8D" d="M123.7,68.1c-0.1-0.1-0.2-0.2-0.3-0.3s-0.3-0.2-0.4-0.2s-0.3-0.1-0.5-0.2c-0.2,0-0.4-0.1-0.6-0.1
                    c-0.6,0-1,0.1-1.2,0.3c-0.3,0.2-0.4,0.5-0.4,0.8c0,0.2,0,0.3,0.1,0.5c0.1,0.1,0.2,0.2,0.3,0.3c0.2,0.1,0.3,0.2,0.6,0.2
                    c0.2,0.1,0.5,0.1,0.8,0.2c0.4,0.1,0.7,0.2,1,0.3c0.3,0.1,0.6,0.2,0.8,0.4c0.2,0.2,0.4,0.3,0.5,0.6s0.2,0.5,0.2,0.8
                    c0,0.3-0.1,0.6-0.2,0.9s-0.3,0.5-0.5,0.6s-0.5,0.3-0.8,0.4s-0.7,0.1-1,0.1c-0.6,0-1.1-0.1-1.6-0.2c-0.5-0.2-0.9-0.4-1.3-0.7
                    l0.4-0.8c0.1,0.1,0.2,0.2,0.4,0.3c0.2,0.1,0.4,0.2,0.6,0.3c0.2,0.1,0.4,0.2,0.7,0.2s0.5,0.1,0.8,0.1c0.5,0,0.9-0.1,1.2-0.3
                    s0.4-0.4,0.4-0.8c0-0.2-0.1-0.4-0.1-0.5c-0.1-0.1-0.2-0.2-0.4-0.3s-0.4-0.2-0.6-0.3c-0.3-0.1-0.6-0.2-0.9-0.2
                    c-0.4-0.1-0.7-0.2-0.9-0.3s-0.5-0.2-0.7-0.4s-0.3-0.3-0.4-0.5c-0.1-0.2-0.1-0.4-0.1-0.7c0-0.3,0.1-0.6,0.2-0.9
                    c0.1-0.3,0.3-0.5,0.5-0.7c0.2-0.2,0.5-0.3,0.8-0.4s0.7-0.1,1-0.1c0.5,0,0.9,0.1,1.3,0.2s0.7,0.3,1,0.6L123.7,68.1z"></path>
                <path fill="#898C8D" d="M135.9,72.9v0.8h-4.8v-7.1h4.7v0.8H132v2.3h3.3v0.8H132v2.4C132,72.9,135.9,72.9,135.9,72.9z"></path>
                <path fill="#898C8D" d="M142.6,73.7v-7.1h3c0.3,0,0.6,0.1,0.9,0.2c0.3,0.1,0.5,0.3,0.7,0.5c0.2,0.2,0.3,0.5,0.4,0.7
                    c0.1,0.3,0.2,0.5,0.2,0.8c0,0.2,0,0.5-0.1,0.7c-0.1,0.2-0.2,0.4-0.3,0.6c-0.1,0.2-0.3,0.3-0.5,0.5c-0.2,0.1-0.4,0.2-0.6,0.3
                    l1.7,2.7h-1l-1.6-2.5h-1.9v2.5L142.6,73.7L142.6,73.7z M143.5,70.4h2.1c0.2,0,0.4,0,0.5-0.1s0.3-0.2,0.4-0.3
                    c0.1-0.1,0.2-0.3,0.2-0.5s0.1-0.4,0.1-0.6c0-0.2,0-0.4-0.1-0.6c-0.1-0.2-0.2-0.3-0.3-0.5s-0.2-0.2-0.4-0.3s-0.3-0.1-0.5-0.1h-2.1
                    L143.5,70.4L143.5,70.4z"></path>
                <path fill="#898C8D" d="M154.7,66.6l2.3,5.9l2.3-5.9h0.9l-2.9,7.1h-0.8l-2.9-7.1H154.7z"></path>
                <path fill="#898C8D" d="M166.7,73.7v-7.1h0.9v7.1H166.7z"></path>
                <path fill="#898C8D" d="M174.4,70.1c0-0.4,0.1-0.8,0.2-1.3s0.4-0.8,0.7-1.1c0.3-0.3,0.6-0.6,1.1-0.8c0.4-0.2,0.9-0.3,1.4-0.3
                    c0.6,0,1.2,0.1,1.6,0.4c0.4,0.3,0.8,0.7,1,1.1l-0.7,0.5c-0.1-0.2-0.2-0.4-0.4-0.6c-0.1-0.2-0.3-0.3-0.5-0.4
                    c-0.2-0.1-0.4-0.2-0.5-0.2c-0.2,0-0.4-0.1-0.6-0.1c-0.4,0-0.7,0.1-1,0.2c-0.3,0.2-0.6,0.4-0.8,0.6c-0.2,0.3-0.4,0.6-0.5,0.9
                    s-0.1,0.7-0.1,1c0,0.4,0.1,0.7,0.2,1.1c0.1,0.3,0.3,0.6,0.5,0.9s0.5,0.5,0.8,0.6s0.6,0.2,1,0.2c0.2,0,0.4,0,0.6-0.1
                    c0.2-0.1,0.4-0.1,0.6-0.2s0.4-0.2,0.5-0.4c0.2-0.2,0.3-0.3,0.4-0.6l0.8,0.4c-0.1,0.3-0.3,0.5-0.5,0.7s-0.4,0.4-0.7,0.5
                    c-0.3,0.1-0.5,0.2-0.8,0.3c-0.3,0.1-0.6,0.1-0.8,0.1c-0.5,0-0.9-0.1-1.3-0.3s-0.8-0.5-1.1-0.8c-0.3-0.3-0.5-0.7-0.7-1.2
                    C174.4,71,174.4,70.6,174.4,70.1z"></path>
                <path fill="#898C8D" d="M191.9,72.9v0.8h-4.8v-7.1h4.7v0.8H188v2.3h3.3v0.8H188v2.4C188,72.9,191.9,72.9,191.9,72.9z"></path>
                <path fill="#898C8D" d="M202.8,68.1c-0.1-0.1-0.2-0.2-0.3-0.3s-0.3-0.2-0.4-0.2s-0.4-0.1-0.5-0.2c-0.2,0-0.4-0.1-0.6-0.1
                    c-0.6,0-1,0.1-1.2,0.3s-0.4,0.5-0.4,0.8c0,0.2,0,0.3,0.1,0.5c0.1,0.1,0.2,0.2,0.3,0.3c0.2,0.1,0.4,0.2,0.6,0.2
                    c0.2,0.1,0.5,0.1,0.8,0.2c0.4,0.1,0.7,0.2,1,0.3c0.3,0.1,0.6,0.2,0.8,0.4c0.2,0.2,0.4,0.3,0.5,0.6s0.2,0.5,0.2,0.8
                    c0,0.3-0.1,0.6-0.2,0.9c-0.1,0.2-0.3,0.5-0.5,0.6s-0.5,0.3-0.8,0.4s-0.6,0.1-1,0.1c-0.6,0-1.1-0.1-1.6-0.2s-0.9-0.4-1.3-0.7
                    l0.4-0.8c0.1,0.1,0.2,0.2,0.4,0.3c0.2,0.1,0.4,0.2,0.6,0.3c0.2,0.1,0.4,0.2,0.7,0.2s0.5,0.1,0.8,0.1c0.5,0,0.9-0.1,1.2-0.3
                    s0.4-0.4,0.4-0.8c0-0.2-0.1-0.4-0.1-0.5c-0.1-0.1-0.2-0.2-0.4-0.3s-0.4-0.2-0.6-0.3s-0.6-0.2-0.9-0.2c-0.4-0.1-0.7-0.2-0.9-0.3
                    s-0.5-0.2-0.7-0.4s-0.3-0.3-0.4-0.5c-0.1-0.2-0.1-0.4-0.1-0.7c0-0.3,0.1-0.6,0.2-0.9s0.3-0.5,0.5-0.7s0.5-0.3,0.8-0.4
                    s0.6-0.1,1-0.1c0.5,0,0.9,0.1,1.3,0.2s0.7,0.3,1,0.6L202.8,68.1z"></path>
            </g>
            <g>
                <path fill="#004876" d="M34.1,56.3c0,0.9,0,1.6,0.1,2.1c0.1,0.5,0.2,1,0.5,1.2s0.6,0.5,1.1,0.6s1.1,0.2,1.9,0.2v1.4H25v-1.4
                    c0.9,0,1.5-0.1,2.1-0.2c0.5-0.1,0.9-0.3,1.2-0.6c0.3-0.3,0.5-0.7,0.6-1.2c0.1-0.5,0.1-1.2,0.1-2v-7.2H16.1v7c0,0.9,0,1.6,0.1,2.1
                    s0.3,1,0.6,1.2c0.3,0.3,0.7,0.5,1.2,0.6s1.2,0.2,2.1,0.2v1.4H7.4v-1.4c0.8,0,1.4-0.1,1.9-0.2s0.8-0.3,1.1-0.6s0.4-0.7,0.5-1.2
                    c0.1-0.5,0.1-1.2,0.1-2v-16c0-0.8,0-1.5-0.1-2s-0.2-0.9-0.5-1.2c-0.2-0.3-0.6-0.5-1-0.6c-0.4-0.1-1-0.2-1.7-0.2v-1.4h12v1.4
                    c-0.8,0-1.4,0.1-1.9,0.2s-0.8,0.3-1.1,0.6s-0.4,0.7-0.5,1.2s-0.1,1.2-0.1,2.1v6.4H29v-6.6c0-0.8,0-1.5-0.1-2s-0.3-0.9-0.5-1.2
                    s-0.6-0.5-1.1-0.6s-1.1-0.2-1.9-0.2v-1.4h12v1.4c-0.7,0-1.3,0.1-1.7,0.2c-0.4,0.1-0.8,0.3-1,0.6c-0.2,0.3-0.4,0.7-0.5,1.2
                    s-0.1,1.2-0.1,2.1L34.1,56.3L34.1,56.3z"></path>
                <path fill="#004876" d="M75.6,56.2c0,1,0,1.7,0.1,2.3c0.1,0.6,0.2,1,0.4,1.3s0.5,0.5,0.9,0.6s0.9,0.2,1.6,0.2v1.4h-11v-1.4
                    c0.7,0,1.2-0.1,1.7-0.2s0.7-0.3,0.9-0.6c0.2-0.3,0.3-0.7,0.4-1.2s0.1-1.2,0.1-2.1v-4.3c0-1.3,0-2.4-0.1-3.3
                    c0-0.9-0.1-1.5-0.2-1.8c-0.1-0.3-0.2-0.5-0.3-0.7S70,46,69.8,45.9c-0.2-0.1-0.5-0.2-0.8-0.2c-0.3,0-0.8,0-1.3,0v-1.2l6.7-1.3
                    l0.4,3h0.2c1-1.1,1.9-1.9,2.9-2.3c1-0.5,2.1-0.7,3.4-0.7c1.5,0,2.8,0.3,3.8,0.8s1.8,1.3,2.3,2.3h0.1c0.8-1,1.8-1.7,3-2.3
                    c1.2-0.5,2.4-0.8,3.7-0.8c1.4,0,2.6,0.2,3.6,0.5c1,0.3,1.8,0.8,2.4,1.5c0.5,0.5,0.8,1.2,1,2.1c0.2,0.9,0.3,2,0.3,3.6v5.3
                    c0,1,0,1.7,0.1,2.3c0.1,0.6,0.2,1,0.4,1.3s0.5,0.5,0.9,0.6s0.9,0.2,1.6,0.2v1.4h-11v-1.4c0.7,0,1.2-0.1,1.7-0.2
                    c0.4-0.1,0.7-0.3,0.9-0.6s0.4-0.7,0.4-1.2c0.1-0.5,0.1-1.2,0.1-2.1v-4.5c0-1.2-0.1-2.2-0.2-3c-0.1-0.8-0.4-1.5-0.7-2
                    s-0.7-0.9-1.2-1.1s-1.1-0.3-1.8-0.3c-0.8,0-1.5,0.2-2,0.6s-0.9,0.9-1.3,1.5c-0.6,1.1-0.9,2.4-0.9,4.1v4.6c0,1,0,1.7,0.1,2.3
                    c0.1,0.6,0.2,1,0.4,1.3s0.5,0.5,0.9,0.6c0.4,0.1,1,0.2,1.7,0.2v1.4h-11v-1.4c0.7,0,1.2-0.1,1.7-0.2c0.4-0.1,0.7-0.3,0.9-0.6
                    c0.2-0.3,0.4-0.7,0.4-1.2s0.1-1.2,0.1-2.1v-4.5c0-1.2-0.1-2.2-0.2-3c-0.1-0.8-0.4-1.5-0.7-2c-0.3-0.5-0.7-0.9-1.2-1.1
                    s-1.2-0.3-1.9-0.3s-1.4,0.2-1.9,0.6c-0.5,0.4-0.9,0.9-1.2,1.5c-0.3,0.6-0.5,1.2-0.7,1.9s-0.2,1.5-0.2,2.2L75.6,56.2L75.6,56.2z"></path>
                <path fill="#004876" d="M123.8,58.7c-2.1,2.4-4.7,3.6-7.9,3.6c-1.4,0-2.7-0.2-3.9-0.7c-1.2-0.5-2.2-1.1-3-1.9s-1.5-1.8-1.9-2.9
                    s-0.7-2.4-0.7-3.8c0-1.4,0.2-2.8,0.7-3.9c0.5-1.2,1.2-2.2,2.1-3.1c0.9-0.9,1.9-1.5,3.2-2c1.2-0.5,2.6-0.7,4-0.7
                    c2.4,0,4.4,0.7,5.7,2s2.1,3.2,2.1,5.5c0,0.4-0.1,0.6-0.2,0.7c-0.1,0.1-0.4,0.1-1,0.1h-11.2c-0.1,0.2-0.1,0.6-0.1,1.2
                    c0,2.3,0.5,4.1,1.5,5.4c1,1.3,2.3,2,4,2c1,0,1.9-0.2,2.9-0.7s1.9-1.1,2.8-1.9L123.8,58.7z M117.1,49.5c0.9,0,1.5,0,1.8-0.2
                    c0.3-0.1,0.4-0.3,0.4-0.8c0-1-0.3-1.8-0.9-2.5s-1.3-1-2.2-1c-1,0-1.9,0.4-2.7,1.2c-0.8,0.8-1.3,1.9-1.5,3.1L117.1,49.5
                    L117.1,49.5z"></path>
                <path fill="#004876" d="M152.9,56.6l5.4-15.1c0.3-0.9,0.6-1.6,0.7-2.2c0.1-0.5,0.2-1,0.2-1.4c0-0.6-0.2-1-0.6-1.2s-1.1-0.3-2-0.3
                    v-1.3h8.4v1.3c-1.1,0-1.9,0.2-2.4,0.7c-0.5,0.4-1,1.2-1.4,2.2l-8.7,22.9h-1.2l-6.7-19.8l-7.4,19.8h-1.2l-7.2-19.9
                    c-0.4-1.1-0.8-2-1.1-2.8c-0.3-0.8-0.7-1.3-1.1-1.8c-0.4-0.4-0.8-0.8-1.3-0.9c-0.5-0.2-1.1-0.3-1.8-0.3v-1.3h11.3v1.3
                    c-1.2,0-2,0.1-2.5,0.3c-0.5,0.2-0.7,0.6-0.7,1.2c0,0.3,0.1,0.7,0.1,1s0.2,0.9,0.4,1.4l5.3,16.1l4.3-12c0.3-0.9,0.6-1.7,0.9-2.5
                    c0.3-0.8,0.6-1.5,0.8-2.1c-0.3-0.7-0.6-1.2-0.9-1.7s-0.5-0.8-0.8-1s-0.5-0.4-0.8-0.5c-0.3-0.1-0.6-0.2-0.9-0.2v-1.3h10.6v1.3
                    c-0.7,0-1.2,0-1.6,0.1s-0.7,0.1-0.9,0.2c-0.2,0.1-0.4,0.2-0.4,0.4c-0.1,0.2-0.1,0.4-0.1,0.7c0,0.3,0.1,0.8,0.2,1.3
                    s0.3,1.1,0.5,1.9L152.9,56.6z"></path>
                <path fill="#004876" d="M180.2,58.7c-2,2.4-4.4,3.6-7.3,3.6c-1.4,0-2.6-0.2-3.7-0.7s-2.1-1.1-2.9-1.9s-1.4-1.8-1.9-3
                    s-0.7-2.4-0.7-3.8c0-1.4,0.2-2.7,0.7-3.9c0.5-1.2,1.1-2.2,2-3.1c0.8-0.9,1.9-1.5,3-2c1.2-0.5,2.4-0.7,3.8-0.7
                    c2.2,0,4,0.6,5.2,1.8c1.2,1.2,1.8,3,1.8,5.2c0,0.3-0.1,0.5-0.2,0.6s-0.4,0.1-0.9,0.1h-11.4c-0.1,0.2-0.1,0.4-0.1,0.7s0,0.6,0,0.9
                    c0,1.2,0.1,2.3,0.4,3.3s0.7,1.8,1.2,2.5c0.5,0.7,1.2,1.2,1.9,1.6s1.6,0.6,2.5,0.6c1,0,1.9-0.2,2.7-0.6c0.8-0.4,1.7-1.1,2.6-2.1
                    L180.2,58.7z M174.5,49.3c0.5,0,0.8,0,1.1,0s0.5-0.1,0.6-0.1c0.1-0.1,0.2-0.2,0.3-0.3s0.1-0.3,0.1-0.5c0-1.1-0.3-1.9-1-2.5
                    c-0.7-0.6-1.6-1-2.8-1c-2.5,0-4.1,1.5-4.6,4.5L174.5,49.3L174.5,49.3z"></path>
                <path fill="#004876" d="M189.3,56.5c0,0.9,0,1.6,0.1,2.1s0.2,1,0.4,1.2c0.2,0.3,0.5,0.5,0.9,0.6c0.4,0.1,0.9,0.2,1.6,0.2v1.2
                    h-9.6v-1.2c0.7,0,1.2-0.1,1.7-0.2s0.8-0.3,1-0.6s0.4-0.7,0.5-1.2c0.1-0.5,0.1-1.2,0.1-2v-15c0-1.2,0-2.3-0.1-3.1
                    s-0.1-1.4-0.2-1.7c-0.1-0.5-0.4-0.9-0.8-1.1c-0.4-0.2-1.2-0.3-2.3-0.3v-1.2l6.6-1.3L189.3,56.5L189.3,56.5z"></path>
                <path fill="#004876" d="M200.5,56.5c0,0.9,0,1.6,0.1,2.1s0.2,1,0.4,1.2c0.2,0.3,0.5,0.5,0.9,0.6c0.4,0.1,0.9,0.2,1.6,0.2v1.2H194
                    v-1.2c0.7,0,1.2-0.1,1.7-0.2s0.8-0.3,1-0.6s0.4-0.7,0.5-1.2c0.1-0.5,0.1-1.2,0.1-2v-15c0-1.2,0-2.3-0.1-3.1s-0.1-1.4-0.2-1.7
                    c-0.1-0.5-0.4-0.9-0.8-1.1c-0.4-0.2-1.2-0.3-2.3-0.3v-1.2l6.6-1.3L200.5,56.5L200.5,56.5z"></path>
            </g>
        </g>
        <g>
            <path fill="#004876" d="M206.4,38c-0.4,0-0.7-0.1-1-0.2c-0.3-0.1-0.6-0.3-0.8-0.5s-0.4-0.5-0.5-0.8c-0.1-0.3-0.2-0.6-0.2-1
                s0.1-0.7,0.2-1c0.1-0.3,0.3-0.6,0.5-0.8c0.2-0.2,0.5-0.4,0.8-0.5c0.3-0.1,0.6-0.2,1-0.2c0.4,0,0.7,0.1,1,0.2
                c0.3,0.1,0.6,0.3,0.8,0.5c0.2,0.2,0.4,0.5,0.5,0.8c0.1,0.3,0.2,0.6,0.2,1c0,0.4-0.1,0.7-0.2,1c-0.1,0.3-0.3,0.6-0.5,0.8
                c-0.2,0.2-0.5,0.4-0.8,0.5C207.1,37.9,206.8,38,206.4,38z M206.4,37.7c0.3,0,0.6,0,0.9-0.2s0.5-0.2,0.7-0.4s0.4-0.4,0.5-0.7
                c0.1-0.3,0.2-0.5,0.2-0.8s-0.1-0.6-0.2-0.8s-0.3-0.5-0.5-0.7c-0.2-0.2-0.4-0.3-0.7-0.5c-0.3-0.1-0.6-0.2-0.9-0.2s-0.6,0.1-0.9,0.2
                c-0.3,0.1-0.5,0.3-0.7,0.5c-0.2,0.2-0.3,0.4-0.4,0.7s-0.2,0.5-0.2,0.8c0,0.3,0.1,0.6,0.2,0.8c0.1,0.3,0.3,0.5,0.4,0.7
                c0.2,0.2,0.4,0.3,0.7,0.5C205.8,37.6,206.1,37.7,206.4,37.7z M205.3,34h1.3c0.1,0,0.3,0,0.4,0.1c0.1,0.1,0.2,0.1,0.3,0.2
                s0.1,0.2,0.2,0.3s0.1,0.2,0.1,0.4c0,0.2-0.1,0.4-0.1,0.5c-0.1,0.2-0.2,0.3-0.4,0.3l0.7,1.1H207l-0.6-1H206v1h-0.6L205.3,34
                L205.3,34z M206.6,35.5c0.1,0,0.2,0,0.3-0.1c0.1-0.1,0.1-0.2,0.1-0.3s0-0.2-0.1-0.3s-0.2-0.1-0.3-0.1h-0.6v0.9H206.6z"></path>
        </g>
    </g>
    <g>
        
            <linearGradient id="SVGID_11_" gradientUnits="userSpaceOnUse" x1="38.73" y1="56.2067" x2="65.975" y2="56.2067" gradientTransform="matrix(1 0 0 -1 0 110)">
            <stop offset="0" style="stop-color:#ED1F24"></stop>
            <stop offset="1" style="stop-color:#A10F10"></stop>
        </linearGradient>
        <path fill="url(#SVGID_11_)" d="M63.6,42.8c-2.9-2.6-7.6-2.3-10.2,0.6c-0.6,0.6-1.1,1.2-1.7,1.9c-0.1,0.1-0.2,0.3-0.4,0.4
            c-1.5,1.7-3.1,3.4-4.6,5.1c-0.2,0.2-0.4,0.4-0.6,0.7c-1.1,1.1-2.6,1.7-4.2,1.7c-1.2,0-2.3-0.3-3.2-0.9c0.2,0.2,0.4,0.5,0.6,0.7
            c0.9,1,1.8,2.1,2.8,3.1c1.6,1.8,3.2,3.6,4.8,5.4c1.4,1.6,2.8,3.2,4.2,4.7c0.3,0.4,0.9,0.4,1.3,0c1.4-1.6,2.8-3.2,4.2-4.7
            c1.6-1.8,3.2-3.6,4.8-5.4c0.9-1,1.8-2.1,2.8-3.1C66.8,50.1,66.5,45.5,63.6,42.8z"></path>
        
            <linearGradient id="SVGID_12_" gradientUnits="userSpaceOnUse" x1="37.7588" y1="66.9189" x2="46.5847" y2="61.2853" gradientTransform="matrix(1 0 0 -1 0 110)">
            <stop offset="0" style="stop-color:#ED1F24"></stop>
            <stop offset="1" style="stop-color:#860302"></stop>
        </linearGradient>
        <path fill="url(#SVGID_12_)" d="M43.3,41.2C42.1,41.4,41,42,40,42.8c-1.5,1.3-2.3,3.2-2.3,5.1c0,0.6,0,1.2,0.2,1.7
            c0.1,0.4,0.2,0.8,0.3,1.2c0.2,0.4,0.5,0.7,0.9,0.9c0.8,0.5,1.8,0.8,3,0.8c1.5,0,2.8-0.6,3.9-1.6c0.2-0.2,0.4-0.4,0.6-0.6l0.9-1
            c1.2-1.4,2.5-2.8,3.7-4.2l0.3-0.3L50,43.4C48.4,41.5,45.8,40.7,43.3,41.2z"></path>
    </g>
    </svg>